<svg width="21" height="19" viewBox="0 0 21 19" fill="none" xmlns="http://www.w3.org/2000/svg">
<path d="M16.6401 16.9824H2.01565V3.75756H10.8036L12.1331 2.5553H2.01565C1.66305 2.5553 1.32489 2.68196 1.07556 2.90743C0.826228 3.1329 0.686157 3.4387 0.686157 3.75756V16.9824C0.686157 17.3013 0.826228 17.6071 1.07556 17.8325C1.32489 18.058 1.66305 18.1847 2.01565 18.1847H16.6401C16.9927 18.1847 17.3308 18.058 17.5802 17.8325C17.8295 17.6071 17.9696 17.3013 17.9696 16.9824V7.96546L16.6401 9.16772V16.9824Z" fill="#757575"/>
<path d="M20.3162 2.45914L18.076 0.433331C17.9766 0.34318 17.8585 0.271654 17.7285 0.22285C17.5984 0.174047 17.459 0.148926 17.3182 0.148926C17.1774 0.148926 17.038 0.174047 16.908 0.22285C16.7779 0.271654 16.6598 0.34318 16.5604 0.433331L7.44672 8.72291L6.70886 11.6143C6.67742 11.7545 6.68073 11.8992 6.71853 12.0381C6.75634 12.1769 6.82771 12.3065 6.92751 12.4174C7.02731 12.5284 7.15305 12.618 7.2957 12.6797C7.43835 12.7414 7.59436 12.7738 7.75251 12.7745C7.83425 12.7827 7.91673 12.7827 7.99846 12.7745L11.2225 12.1313L20.3162 3.82971C20.4159 3.73981 20.495 3.633 20.549 3.5154C20.6029 3.39781 20.6307 3.27174 20.6307 3.14442C20.6307 3.01711 20.6029 2.89104 20.549 2.77344C20.495 2.65585 20.4159 2.54904 20.3162 2.45914ZM10.5311 11.0192L8.09818 11.5061L8.66321 9.32403L15.5234 3.0783L17.398 4.77348L10.5311 11.0192ZM18.1491 4.09421L16.2746 2.39902L17.3049 1.44924L19.1928 3.15645L18.1491 4.09421Z" fill="#757575"/>
</svg>
